<?xml version="1.0" encoding="UTF-8"?>
<!DOCTYPE svg PUBLIC "-//W3C//DTD SVG 1.1//EN" "http://www.w3.org/Graphics/SVG/1.1/DTD/svg11.dtd">
<!-- Creator: CorelDRAW (Evaluation Version) -->
<svg xmlns="http://www.w3.org/2000/svg" xml:space="preserve" width="215.9mm" height="279.4mm" version="1.1" style="shape-rendering:geometricPrecision; text-rendering:geometricPrecision; image-rendering:optimizeQuality; fill-rule:evenodd; clip-rule:evenodd"
viewBox="0 0 21590 27940"
 xmlns:xlink="http://www.w3.org/1999/xlink"
 xmlns:xodm="http://www.corel.com/coreldraw/odm/2003">
 <defs>
  <style type="text/css">
   <![CDATA[
    .fil0 {fill:#1B1B1B}
   ]]>
  </style>
 </defs>
 <g id="Layer_x0020_1">
  <metadata id="CorelCorpID_0Corel-Layer"/>
  <path class="fil0" d="M1169.39 17314l2516.05 7.9c448.2,-997.27 2051.21,-2945.24 2808.72,-3694.92 183.32,-181.4 378.59,-333.61 553.52,-519.56l1182.44 -991.16c1232.06,-884.51 1958.31,-1363.58 3405.53,-2015.76 386.07,-173.96 1177.76,-517.16 1587.94,-599.67 617.77,1231.51 1443.42,2651.08 2093.56,3893.51 485.34,927.5 1131.93,2044.1 1575.19,2937.63 79.49,160.18 174.03,317.96 263.78,478.82 69.87,125.21 221.92,384.08 261.18,507.8l2496.56 2.69c-85.02,-183.41 -178.48,-336.31 -279.28,-513.55 -98.08,-172.53 -176.79,-339.43 -281.43,-516.57 -202.16,-342.13 -377.48,-691.02 -578.97,-1044.46 -777.13,-1363.22 -1536.78,-2795.2 -2317.46,-4176.07l-1150.1 -2089.91c919.34,-216.95 2255.94,-257.67 3232.12,-239.74 349.64,6.41 786.63,77.25 1103.7,64.8 -3452,-922 -7098.56,-415.89 -10288.31,1079.13 -443.36,207.79 -940.76,464.42 -1327.34,707.79l-1245.49 805.28c97.3,-251.11 309.9,-612.28 447.29,-860.56l3312.92 -6116.86c94.11,96.59 418.01,760.14 512.93,938.16 178.28,334.36 334.33,637.3 513.78,972.05l756.43 1444.89c70.78,146.69 196.71,347.98 247.5,489.31 712.53,-112.73 1371.38,-283.25 2131.09,-330.3l-3121.01 -5636.36c-162.1,-309.24 -346.2,-633.79 -516.94,-941.67 -86.86,-156.63 -169.47,-301.5 -255.88,-459.47 -66.94,-122.42 -193.68,-383.79 -267.9,-467.31l-3503.48 6311.91c-392.3,701.18 -777.36,1419.27 -1180.65,2120.69 -199.14,346.32 -374.37,705.51 -579.29,1044.06 -557.88,921.56 -1197.03,2192.35 -1768.1,3184.29 -199.99,347.43 -376.9,696.32 -579.62,1043.81l-1180.23 2121.31c-184.68,340.12 -411.87,712.08 -580.75,1058.07z"/>
 </g>
</svg>
