<?xml version="1.0" encoding="UTF-8"?>
<!DOCTYPE svg PUBLIC "-//W3C//DTD SVG 1.1//EN" "http://www.w3.org/Graphics/SVG/1.1/DTD/svg11.dtd">
<!-- Creator: CorelDRAW (Evaluation Version) -->
<svg xmlns="http://www.w3.org/2000/svg" xml:space="preserve" width="187.445mm" height="168.92mm" version="1.1" style="shape-rendering:geometricPrecision; text-rendering:geometricPrecision; image-rendering:optimizeQuality; fill-rule:evenodd; clip-rule:evenodd"
viewBox="0 0 18251.06 16447.39"
 xmlns:xlink="http://www.w3.org/1999/xlink"
 xmlns:xodm="http://www.corel.com/coreldraw/odm/2003">
 <defs>
  <style type="text/css">
   <![CDATA[
    .fil0 {fill:#1B1B1B}
   ]]>
  </style>
 </defs>
 <g id="Layer_x0020_1">
  <metadata id="CorelCorpID_0Corel-Layer"/>
  <path class="fil0" d="M-0 16439.7l2449.82 7.69c436.4,-971.02 1997.22,-2867.71 2734.79,-3597.66 178.49,-176.63 368.62,-324.83 538.95,-505.88l1151.31 -965.07c1199.63,-861.23 1906.76,-1327.69 3315.89,-1962.7 375.91,-169.38 1146.76,-503.55 1546.14,-583.88 601.51,1199.09 1405.42,2581.3 2038.45,3791.02 472.56,903.09 1102.13,1990.29 1533.73,2860.3 77.4,155.96 169.45,309.59 256.84,466.22 68.03,121.91 216.08,373.97 254.3,494.43l2430.84 2.62c-82.78,-178.58 -173.78,-327.46 -271.93,-500.03 -95.5,-167.99 -172.14,-330.5 -274.02,-502.97 -196.84,-333.12 -367.54,-672.83 -563.73,-1016.97 -756.67,-1327.34 -1496.33,-2721.62 -2256.46,-4066.14l-1119.83 -2034.9c895.14,-211.24 2196.56,-250.89 3147.04,-233.43 340.44,6.24 765.92,75.22 1074.65,63.09 -3361.13,-897.73 -6911.7,-404.94 -10017.49,1050.72 -431.69,202.32 -916,452.2 -1292.4,689.16l-1212.7 784.08c94.74,-244.5 301.74,-596.16 435.52,-837.91l3225.71 -5955.85c91.63,94.05 407.01,740.13 499.43,913.46 173.59,325.56 325.53,620.52 500.26,946.46l736.52 1406.86c68.92,142.83 191.53,338.82 240.99,476.43 693.77,-109.76 1335.28,-275.79 2074.99,-321.61l-3038.86 -5487.99c-157.83,-301.1 -337.09,-617.11 -503.33,-916.88 -84.57,-152.51 -165.01,-293.56 -249.14,-447.38 -65.18,-119.2 -188.58,-373.69 -260.85,-455.01l-3411.26 6145.76c-381.97,682.72 -756.9,1381.91 -1149.57,2064.87 -193.9,337.2 -364.52,686.94 -564.04,1016.58 -543.19,897.3 -1165.52,2134.64 -1721.56,3100.47 -194.73,338.28 -366.98,677.99 -564.36,1016.33l-1149.16 2065.47c-179.82,331.17 -401.03,693.34 -565.46,1030.22z"/>
 </g>
</svg>
